<?xml version="1.0" encoding="UTF-8" standalone="no"?>
<!DOCTYPE svg PUBLIC "-//W3C//DTD SVG 1.1//EN" "http://www.w3.org/Graphics/SVG/1.1/DTD/svg11.dtd">
<svg width="100%" height="100%" viewBox="0 0 411 121" version="1.1" xmlns="http://www.w3.org/2000/svg" xmlns:xlink="http://www.w3.org/1999/xlink"
xml:space="preserve" xmlns:serif="http://www.serif.com/" style="fill-rule:evenodd;clip-rule:evenodd;stroke-linejoin:round;stroke-miterlimit:2;">
    <g transform="matrix(6.79475,0,0,6.79475,-586.794,-983.606)">
        <g transform="matrix(12,0,0,12,85.3755,158.103)">
            <path d="M0.218,-0L0.082,-0L0.082,-0.733L0.218,-0.733L0.218,-0.372L0.488,-0.733L0.637,-0.733L0.64,-0.725L0.368,-0.381L0.681,-0.008L0.678,-0L0.519,-0L0.218,-0.362L0.218,-0Z" style="fill-rule:nonzero;"/>
        </g>
    </g>
    <g transform="matrix(6.79475,0,0,6.79475,-534.304,-983.606)">
        <g transform="matrix(12,0,0,12,85.3755,158.103)">
            <path d="M0.055,-0.541C0.055,-0.603 0.076,-0.652 0.118,-0.688C0.16,-0.725 0.214,-0.743 0.28,-0.743C0.369,-0.743 0.442,-0.71 0.497,-0.644L0.399,-0.55C0.359,-0.591 0.318,-0.612 0.276,-0.612C0.251,-0.612 0.231,-0.606 0.216,-0.593C0.2,-0.58 0.192,-0.563 0.192,-0.542C0.192,-0.527 0.198,-0.513 0.21,-0.501C0.224,-0.487 0.239,-0.475 0.256,-0.465C0.264,-0.46 0.275,-0.454 0.288,-0.447C0.301,-0.441 0.313,-0.434 0.323,-0.428L0.363,-0.408C0.468,-0.352 0.521,-0.282 0.521,-0.198C0.521,-0.137 0.5,-0.088 0.457,-0.049C0.414,-0.01 0.357,0.01 0.286,0.01C0.232,0.01 0.182,-0.001 0.137,-0.022C0.092,-0.044 0.055,-0.073 0.026,-0.11L0.125,-0.206C0.172,-0.15 0.226,-0.122 0.288,-0.122C0.316,-0.122 0.339,-0.13 0.357,-0.145C0.375,-0.16 0.384,-0.178 0.384,-0.2C0.384,-0.218 0.375,-0.236 0.356,-0.254C0.337,-0.273 0.319,-0.286 0.302,-0.295C0.283,-0.305 0.257,-0.319 0.223,-0.337C0.111,-0.392 0.055,-0.46 0.055,-0.541Z" style="fill-rule:nonzero;"/>
        </g>
    </g>
    <g transform="matrix(6.79475,0,0,6.79475,-478.652,-983.606)">
        <g transform="matrix(12,0,0,12,85.3755,158.103)">
            <path d="M0.218,-0L0.082,-0L0.082,-0.743L0.091,-0.743L0.465,-0.381L0.839,-0.743L0.848,-0.743L0.848,-0L0.712,-0L0.712,-0.442L0.471,-0.205L0.46,-0.205L0.218,-0.442L0.218,-0Z" style="fill-rule:nonzero;"/>
        </g>
        <g transform="matrix(12,0,0,12,96.5317,158.103)">
            <path d="M0.411,0.01C0.304,0.01 0.215,-0.026 0.145,-0.097C0.075,-0.169 0.04,-0.259 0.04,-0.366C0.04,-0.471 0.075,-0.56 0.145,-0.634C0.216,-0.707 0.306,-0.743 0.415,-0.743C0.524,-0.743 0.612,-0.707 0.681,-0.634C0.75,-0.562 0.784,-0.473 0.784,-0.367C0.784,-0.262 0.749,-0.173 0.679,-0.099C0.61,-0.027 0.521,0.01 0.411,0.01ZM0.646,-0.366C0.646,-0.437 0.624,-0.495 0.58,-0.54C0.536,-0.586 0.48,-0.609 0.412,-0.609C0.346,-0.609 0.29,-0.586 0.245,-0.54C0.201,-0.494 0.178,-0.437 0.178,-0.366C0.178,-0.298 0.201,-0.24 0.245,-0.194C0.29,-0.147 0.345,-0.124 0.412,-0.124C0.478,-0.124 0.534,-0.147 0.578,-0.194C0.623,-0.241 0.646,-0.299 0.646,-0.366Z" style="fill-rule:nonzero;"/>
        </g>
        <g transform="matrix(12,0,0,12,106.247,158.103)">
            <path d="M0.342,0.01L0.333,0.01L-0.015,-0.725L-0.01,-0.733L0.136,-0.733L0.341,-0.263L0.542,-0.733L0.685,-0.733L0.689,-0.726L0.342,0.01Z" style="fill-rule:nonzero;"/>
        </g>
        <g transform="matrix(12,0,0,12,114.186,158.103)">
            <rect x="0.089" y="-0.733" width="0.136" height="0.733" style="fill-rule:nonzero;"/>
        </g>
        <g transform="matrix(12,0,0,12,117.954,158.103)">
            <path d="M0.519,-0.13L0.519,-0L0.082,-0L0.082,-0.733L0.519,-0.733L0.519,-0.603L0.218,-0.603L0.218,-0.406L0.469,-0.406L0.469,-0.282L0.218,-0.282L0.218,-0.13L0.519,-0.13Z" style="fill-rule:nonzero;"/>
        </g>
        <g transform="matrix(12,0,0,12,124.616,158.103)">
            <path d="M0.055,-0.541C0.055,-0.603 0.076,-0.652 0.118,-0.688C0.16,-0.725 0.214,-0.743 0.28,-0.743C0.369,-0.743 0.442,-0.71 0.497,-0.644L0.399,-0.55C0.359,-0.591 0.318,-0.612 0.276,-0.612C0.251,-0.612 0.231,-0.606 0.216,-0.593C0.2,-0.58 0.192,-0.563 0.192,-0.542C0.192,-0.527 0.198,-0.513 0.21,-0.501C0.224,-0.487 0.239,-0.475 0.256,-0.465C0.264,-0.46 0.275,-0.454 0.288,-0.447C0.301,-0.441 0.313,-0.434 0.323,-0.428L0.363,-0.408C0.468,-0.352 0.521,-0.282 0.521,-0.198C0.521,-0.137 0.5,-0.088 0.457,-0.049C0.414,-0.01 0.357,0.01 0.286,0.01C0.232,0.01 0.182,-0.001 0.137,-0.022C0.092,-0.044 0.055,-0.073 0.026,-0.11L0.125,-0.206C0.172,-0.15 0.226,-0.122 0.288,-0.122C0.316,-0.122 0.339,-0.13 0.357,-0.145C0.375,-0.16 0.384,-0.178 0.384,-0.2C0.384,-0.218 0.375,-0.236 0.356,-0.254C0.337,-0.273 0.319,-0.286 0.302,-0.295C0.283,-0.305 0.257,-0.319 0.223,-0.337C0.111,-0.392 0.055,-0.46 0.055,-0.541Z" style="fill-rule:nonzero;"/>
        </g>
    </g>
    <g transform="matrix(0.74928,0.171426,-0.169275,0.739877,-325.341,-271.845)">
        <path d="M566.498,246.92C570.758,238.193 579.279,238.193 583.54,242.556C587.8,246.92 589.89,257.836 583.54,264.375C568.07,280.301 566.498,281.829 566.498,281.829C566.498,281.829 562.606,277.977 549.456,264.375C543.118,257.818 545.196,246.92 549.456,242.556C553.716,238.193 562.237,238.193 566.498,246.92Z" style=""/>
    </g>
</svg>
